<svg width="904" height="904" viewBox="0 0 904 904" fill="none" xmlns="http://www.w3.org/2000/svg">
<path d="M313.962 299.197C315.72 299.187 317.477 299.178 319.288 299.168C323.006 299.153 326.724 299.142 330.442 299.135C335.98 299.119 341.516 299.068 347.054 299.015C365.612 298.921 383.911 299.536 402.362 301.632C404.016 301.812 405.67 301.992 407.375 302.177C418.874 303.637 428.97 306.899 439.721 311.141C442.32 312.044 444.923 312.933 447.533 313.803C502.743 332.439 555.485 359.382 605.535 389.073C607.068 389.978 608.602 390.882 610.181 391.814C628.734 402.799 646.944 414.265 664.917 426.174C666.529 427.238 668.14 428.302 669.801 429.398C707.1 454.375 707.1 454.375 711.656 470.322C713.281 480.794 713.533 490.983 713.476 501.567C713.473 504.079 713.473 504.079 713.469 506.641C713.46 511.945 713.439 517.249 713.418 522.553C713.41 526.168 713.402 529.782 713.395 533.396C713.377 542.218 713.349 551.04 713.314 559.861C707.753 559.91 702.191 559.939 696.629 559.965C695.066 559.979 693.502 559.993 691.891 560.007C683.357 560.037 675.335 559.533 666.887 558.203C662.015 557.783 657.139 557.531 652.255 557.296C650.828 557.227 649.402 557.158 647.932 557.087C630.786 556.327 613.639 556.177 596.478 556.147C590.946 556.131 585.415 556.079 579.883 556.027C533.148 555.354 533.148 555.354 489.466 569.81C487.873 570.704 486.281 571.597 484.64 572.518C459.54 587.585 446.021 610.09 438.063 637.794C433.887 654.7 432.31 671.84 431.431 689.196C424.661 690.31 417.89 691.412 411.119 692.512C409.197 692.829 407.275 693.145 405.296 693.471C403.447 693.77 401.598 694.07 399.693 694.378C397.991 694.656 396.289 694.934 394.536 695.22C389.977 695.829 389.977 695.829 383.345 695.829C382.576 530.03 382.576 530.03 394.952 483.587C396.782 483.494 396.782 483.494 398.65 483.399C410.977 482.834 410.977 482.834 421.482 476.954C425.166 471.141 425.732 465.348 426.573 458.592C426.716 457.459 426.858 456.326 427.005 455.159C427.303 452.764 427.596 450.368 427.882 447.971C428.317 444.349 428.775 440.73 429.235 437.111C433.086 417.009 433.086 417.009 428.84 398.4C423.793 395.036 418.854 392.909 413.191 390.731C415.627 378.798 421.033 371.427 430.913 364.305C444.717 359.877 456.884 362.643 470.397 366.792C471.707 367.168 473.017 367.544 474.366 367.931C475.604 368.344 476.842 368.757 478.118 369.182C479.226 369.538 480.334 369.894 481.476 370.261C486.16 373.726 487.733 378.707 489.466 384.099C490.127 390.027 490.127 390.027 490.183 396.376C490.208 398.125 490.208 398.125 490.234 399.909C490.283 403.722 490.299 407.535 490.314 411.348C490.342 414.008 490.372 416.668 490.404 419.328C490.483 426.298 490.532 433.268 490.576 440.239C490.625 447.364 490.703 454.489 490.777 461.613C490.92 475.57 491.031 489.527 491.124 503.485C492.928 502.433 494.732 501.381 496.59 500.298C505.527 495.088 513.537 493.366 523.846 493.458C525.483 493.469 527.12 493.481 528.806 493.492C530.673 493.514 530.673 493.514 532.577 493.536C532.668 479.409 532.687 465.285 532.616 451.159C532.585 444.599 532.579 438.041 532.628 431.481C532.675 425.147 532.658 418.817 532.596 412.483C532.584 410.07 532.594 407.656 532.629 405.243C533.295 392.23 533.295 392.23 528.204 380.889C524.755 378.661 521.511 377.194 517.654 375.808C515.973 374.98 514.291 374.151 512.559 373.298C510.97 372.619 509.381 371.941 507.744 371.242C505.068 370.096 505.068 370.096 502.337 368.928C500.483 368.155 498.63 367.381 496.72 366.585C494.799 365.782 492.878 364.98 490.899 364.154C459.006 350.104 459.006 350.104 425.459 352.652C413.252 359.98 406.669 370.978 401.688 383.995C400.133 387.752 400.133 387.752 398.268 390.731C392.568 392.7 392.568 392.7 386.661 394.048C376.491 402.741 376.458 412.982 375.365 425.759C375.165 427.683 374.965 429.607 374.759 431.589C371.273 455.302 371.273 455.302 378.37 476.954C379.465 478.049 380.559 479.143 381.687 480.271C381.764 484.913 381.764 484.913 381.272 490.919C381.185 492.014 381.099 493.109 381.009 494.236C379.718 509.907 377.97 525.541 376.264 541.171C373.271 568.709 371.696 595.982 371.505 623.687C371.48 626.6 371.48 626.6 371.456 629.573C371.357 641.638 371.357 641.638 371.322 653.704C371.317 659.659 371.26 665.611 371.194 671.566C371.205 673.382 371.217 675.199 371.229 677.071C371.029 689.495 371.029 689.495 366.487 695.998C358.491 701.354 351.149 702.875 341.618 702.917C339.617 702.932 337.615 702.948 335.554 702.964C332.317 702.962 332.317 702.962 329.015 702.96C326.727 702.968 324.44 702.978 322.152 702.988C316.04 703.008 309.927 703.003 303.815 702.988C300.02 702.979 296.225 702.976 292.43 702.974C251.825 702.926 211.516 701.682 171.103 697.487C169.011 697.274 166.919 697.062 164.764 696.843C124.99 692.651 124.99 692.651 116.592 684.533C108.418 668.64 109.495 649.747 109.473 632.25C109.466 630.526 109.459 628.803 109.452 627.028C109.435 621.497 109.435 615.966 109.441 610.435C109.443 608.537 109.444 606.64 109.446 604.685C109.562 539.356 111.18 462.172 136.282 400.68C124.313 401.359 116.879 403.502 108.094 412.287C105.568 421.635 104.797 431.443 104.065 441.071C103.941 442.628 103.817 444.184 103.689 445.788C103.45 448.921 103.237 452.056 103.055 455.193C102.943 456.648 102.832 458.103 102.718 459.602C102.635 460.908 102.552 462.215 102.466 463.56C101.109 468.214 98.9099 469.528 94.8287 471.98C91.5124 472.699 91.5124 472.699 88.1961 472.705C87.1017 472.738 86.0074 472.77 84.8798 472.803C79.8814 471.563 77.981 469.452 74.931 465.348C73.6839 457.125 74.4355 448.76 74.931 440.475C74.9951 439.209 75.0592 437.943 75.1253 436.638C76.8363 406.267 76.8363 406.267 88.1961 395.706C105.068 382.615 122.028 379.899 142.915 380.782C143.101 379.323 143.287 377.863 143.478 376.359C146.825 359.466 158.924 343.751 172.923 334.147C214.006 308.936 266.314 299.401 313.962 299.197Z" fill="#5D2A5E"/>
<path d="M497.756 4.3849C499.252 4.59865 500.748 4.81239 502.289 5.03261C548.554 11.6574 594.035 25.0188 635.296 47.3241C639.058 49.3481 642.848 51.3128 646.639 53.2806C666.257 63.6114 684.061 75.5621 701.707 88.95C704.202 90.8232 706.698 92.6951 709.195 94.5656C711.121 96.01 713.047 97.4544 714.972 98.8988C712.574 105.294 709.645 111.298 706.52 117.359C704.825 120.698 704.825 120.698 703.365 125.429C698.017 123.096 693.616 119.878 688.994 116.347C654.567 90.0912 616.495 71.4696 575.689 57.4453C574.612 57.0611 573.535 56.6769 572.426 56.2811C517.962 36.8927 451.868 30.5994 394.952 40.864C393.235 41.1675 391.518 41.471 389.75 41.7837C349.047 49.1604 311.054 60.7646 273.908 79.0011C272.666 79.6103 271.425 80.2195 270.146 80.8471C245.355 93.172 222.704 108.322 200.949 125.429C199.366 126.671 197.782 127.913 196.15 129.192C170.233 150.319 145.79 174.457 126.333 201.703C124.416 204.342 124.416 204.342 122.46 207.034C97.4425 242.255 77.8771 280.453 63.3239 321.089C62.8478 322.4 62.3717 323.71 61.8812 325.06C50.8356 355.918 42.6909 390.67 40.8484 423.408C40.7438 425.24 40.7438 425.24 40.6371 427.109C39.959 440.032 39.859 452.943 39.8938 465.881C39.9028 469.819 39.8938 473.757 39.8833 477.696C39.8716 498.528 40.4186 519.17 44.5663 539.653C44.8543 541.104 45.1423 542.556 45.439 544.052C46.3963 548.776 47.3906 553.49 48.4007 558.203C48.7536 559.854 49.1066 561.504 49.4702 563.204C62.0894 621.124 84.7931 694.084 127.991 737.282C130.691 737.216 133.386 737.014 136.075 736.764C137.86 736.602 139.644 736.439 141.483 736.272C146.223 735.793 150.959 735.292 155.694 734.769C157.738 734.546 157.738 734.546 159.824 734.318C162.512 734.021 165.2 733.717 167.886 733.404C176.751 732.419 185.397 732.174 194.317 732.308C194.317 731.213 194.317 730.119 194.317 728.992C193.394 728.855 192.47 728.718 191.519 728.577C184.049 726.154 178.478 720.69 174.419 714.068C174.419 712.427 174.419 710.785 174.419 709.094C178.91 709.333 183.401 709.575 187.892 709.819C189.735 709.917 189.735 709.917 191.616 710.017C197.457 710.336 203.29 710.672 209.12 711.152C225.517 712.485 241.835 712.739 258.278 712.805C259.719 712.812 261.161 712.819 262.646 712.826C270.288 712.86 277.93 712.884 285.572 712.9C291.782 712.914 297.992 712.949 304.203 713.002C338.494 713.288 371.596 712.985 405.399 706.592C413.868 705.051 422.402 703.914 430.94 702.824C435.721 702.082 439.125 701.28 442.941 698.232C445.549 692.197 445.361 686.229 445.421 679.766C446.474 647.606 455.187 620.088 477.859 596.34C482.073 592.64 486.39 589.393 491.124 586.392C492.366 585.573 493.607 584.754 494.887 583.911C500.309 580.924 505.856 578.981 511.747 577.168C512.913 576.809 514.078 576.449 515.279 576.078C546.93 566.694 580.824 567.82 613.515 567.841C615.41 567.84 617.306 567.839 619.258 567.838C650.721 567.84 681.96 568.857 713.314 571.468C713.482 581.973 713.599 592.478 713.679 602.984C713.712 606.557 713.757 610.131 713.815 613.705C713.895 618.842 713.933 623.977 713.962 629.115C713.996 630.712 714.03 632.31 714.066 633.957C714.069 645.004 714.069 645.004 710.346 650.332C705.498 653.488 700.679 654.74 695.075 656.033C694.912 654.392 694.75 652.75 694.582 651.059C693.255 638.915 691.841 628.389 685.126 617.896C680.359 615.513 677.135 615.605 671.861 616.238C663.997 623.203 660.84 633.826 659.775 644.052C659.589 648.954 659.575 653.823 659.632 658.728C659.603 661.209 659.603 661.209 659.574 663.741C659.613 673.623 660.849 680.368 665.228 689.196C665.228 690.838 665.228 692.479 665.228 694.171C631.533 703.464 597.535 710.851 563.345 718.047C550.236 720.81 537.154 723.685 524.079 726.608C522.213 727.025 520.347 727.442 518.425 727.871C514.298 728.795 510.172 729.721 506.047 730.65C506.55 729.399 507.053 728.149 507.571 726.86C518.229 700.087 524.266 669.236 512.9 641.577C508.216 632.144 503.945 626.155 494.44 621.213C489.22 620.102 486.281 620.23 481.576 622.812C469.554 631.79 464.501 646.827 461.277 661.008C460.77 667.473 460.724 673.904 460.759 680.387C460.767 682.164 460.775 683.94 460.784 685.77C461.067 704.83 464.424 719.401 474.542 735.624C458.311 740.564 441.773 743.481 425.109 746.506C421.982 747.079 418.854 747.654 415.727 748.229C409.013 749.463 402.298 750.694 395.583 751.922C384.824 753.893 374.071 755.89 363.317 757.892C318.161 766.296 272.983 774.565 227.768 782.644C217.336 784.509 206.908 786.389 196.481 788.28C189.539 789.538 182.596 790.788 175.652 792.038C172.377 792.629 169.103 793.223 165.83 793.819C161.328 794.64 156.824 795.449 152.319 796.256C150.343 796.62 150.343 796.62 148.328 796.992C141.49 798.205 134.963 799.193 127.991 798.633C124.034 795.46 124.034 795.46 120.219 790.964C118.8 789.304 117.38 787.643 115.918 785.932C114.41 784.09 112.908 782.244 111.41 780.394C110.636 779.445 109.862 778.496 109.065 777.519C68.8913 728.001 41.6665 673.293 21.8705 612.922C21.4131 611.561 20.9557 610.2 20.4844 608.798C10.748 579.475 6.5756 548.868 1.97282 518.408C1.66396 516.53 1.3551 514.652 1.03688 512.718C0.1901 505.78 0.0469287 499.001 0.0361704 492.02C0.0289983 490.622 0.0218009 489.224 0.0144114 487.784C-0.00229164 483.276 -0.00245709 478.768 0.00378491 474.26C0.00588895 472.718 0.00799301 471.176 0.0101608 469.587C0.346038 340.975 48.7459 218.135 139.702 126.569C150.252 116.079 160.922 106.266 172.761 97.2407C174.379 95.9454 175.997 94.6501 177.664 93.3155C214.16 64.2398 255.315 42.5952 298.78 25.9407C299.943 25.4948 301.106 25.0489 302.304 24.5894C363.374 1.68202 433.329 -5.63168 497.756 4.3849Z" fill="#6D3767"/>
<path d="M731.554 636.136C751.824 639.852 775.953 647.781 788.863 664.739C793.959 672.188 795.31 676.618 794.563 685.88C790.891 698.64 780.703 706.912 771.349 715.726C769.131 717.93 766.917 720.138 764.716 722.359C776.197 723.698 776.197 723.698 786.888 720.124C798.302 710.306 805.193 699.51 806.895 684.429C806.589 674.976 801.834 668.289 795.308 661.746C782.402 651.158 765.326 643.705 749.793 637.794C749.793 637.247 749.793 636.7 749.793 636.136C791.314 637.205 845.259 652.88 875.656 682.162C886.276 693.535 891.382 701.636 891.195 717.43C889.032 740.612 870.991 759.203 854.256 773.761C810.501 809.924 757.376 834.115 705.023 855.01C703.684 855.557 702.345 856.103 700.966 856.666C689.688 861.252 678.27 865.387 666.783 869.415C664.926 870.083 663.07 870.751 661.157 871.439C650.78 875.073 641.392 877.538 630.407 878.224C630.407 879.318 630.407 880.413 630.407 881.54C610.793 887.231 590.871 890.469 570.723 893.56C567.516 894.055 567.516 894.055 564.244 894.559C562.337 894.847 560.431 895.135 558.466 895.431C554.027 896.196 549.749 897.087 545.375 898.125C536.959 900.026 528.576 900.926 519.985 901.632C518.284 901.772 516.583 901.912 514.83 902.057C492.878 903.678 470.901 903.472 448.905 903.324C443.166 903.289 437.428 903.275 431.69 903.258C420.549 903.223 409.408 903.167 398.268 903.096C398.268 902.002 398.268 900.907 398.268 899.78C399.531 899.258 400.794 898.737 402.096 898.199C403.808 897.49 405.52 896.78 407.284 896.049C409.794 895.01 409.794 895.01 412.355 893.95C416.576 892.162 420.765 890.338 424.947 888.464C434.853 884.042 444.855 879.847 454.852 875.633C458.622 874.042 462.391 872.451 466.161 870.86C468.636 869.816 468.636 869.816 471.162 868.751C474.697 867.254 478.227 865.748 481.755 864.235C492.453 859.653 503.181 855.141 513.913 850.641C516.697 849.472 519.478 848.299 522.259 847.124C526.291 845.42 530.327 843.727 534.365 842.036C535.608 841.508 536.852 840.98 538.133 840.435C543.164 838.34 546.969 836.771 552.475 836.771C552.475 835.676 552.475 834.582 552.475 833.454C550.628 833.283 548.781 833.112 546.878 832.936C539.899 832.11 533.664 830.113 527.084 827.69C515.26 825.387 504.47 829.858 493.611 834.076C492.279 834.58 490.947 835.085 489.575 835.605C485.665 837.088 481.762 838.587 477.858 840.087C468.856 843.515 459.803 846.764 450.706 849.932C443.114 852.591 435.558 855.27 428.114 858.326C417.278 862.768 406.184 866.504 395.132 870.366C388.112 872.826 381.112 875.341 374.108 877.848C370.111 879.278 366.113 880.703 362.113 882.123C360.056 882.854 358 883.585 355.882 884.338C354.033 884.995 352.184 885.651 350.279 886.327C347.09 887.487 343.926 888.718 340.803 890.045C331.176 893.623 322.976 891.383 313.703 888.173C310.763 887.698 307.817 887.26 304.868 886.845C293.045 884.927 281.945 881.456 270.591 877.706C268.633 877.078 266.675 876.451 264.658 875.805C247.398 870.188 230.695 863.579 214.525 855.321C213.433 854.769 212.341 854.218 211.215 853.65C199.405 847.655 187.729 841.407 176.077 835.112C176.077 834.018 176.077 832.924 176.077 831.796C201.257 825.586 226.475 819.573 251.783 813.908C254.342 813.335 256.9 812.76 259.457 812.182C273.165 809.09 286.769 806.273 300.716 804.442C305.82 803.535 310.472 801.996 315.361 800.291C318.617 799.765 321.818 799.477 325.102 799.203C328.848 798.699 328.848 798.699 333.143 797.089C338.549 795.326 343.851 794.071 349.417 792.921C351.545 792.476 353.672 792.032 355.864 791.575C357.559 791.224 357.559 791.224 359.288 790.867C365.456 789.591 371.618 788.292 377.781 786.994C379.065 786.724 380.349 786.453 381.672 786.175C405.491 781.15 429.237 775.787 452.986 770.445C454.479 770.109 455.972 769.774 457.51 769.428C467.133 767.265 476.756 765.094 486.376 762.917C489.476 762.216 492.576 761.516 495.677 760.817C523.084 754.634 550.486 748.319 577.45 740.391C580.378 739.542 583.305 738.693 586.233 737.846C587.575 737.456 588.916 737.067 590.298 736.666C594.706 735.401 599.132 734.208 603.566 733.033C639.95 723.211 677.453 711.527 711.552 695.414C712.882 694.792 714.212 694.169 715.582 693.528C727.285 687.749 741.734 679.33 748.135 667.64C749.733 659.392 749.177 654.295 744.508 647.225C740.345 643.247 736.174 639.568 731.554 636.136Z" fill="#5C295E"/>
<path d="M323.898 347.221C327.841 347.205 331.783 347.153 335.725 347.101C338.282 347.09 340.838 347.082 343.394 347.075C344.548 347.055 345.702 347.034 346.891 347.013C354.893 347.049 365.739 348.253 371.738 354.252C372.185 362.004 371.329 367.07 368.422 374.15C367.639 377.128 366.927 380.125 366.271 383.133C365.884 384.909 365.497 386.684 365.099 388.513C360.968 408.035 356.965 427.578 353.395 447.211C353.084 448.917 353.084 448.917 352.767 450.657C350.063 465.714 348.006 480.77 346.406 495.984C346.234 497.597 346.061 499.211 345.883 500.874C345.041 508.827 344.253 516.779 343.549 524.746C343.257 527.666 342.964 530.586 342.669 533.506C342.57 534.826 342.472 536.147 342.371 537.508C341.321 547.308 337.714 553.35 330.285 559.861C325.401 562.212 325.401 562.212 320.128 563.488C318.091 563.986 316.054 564.484 313.956 564.997C311.661 565.499 309.366 565.998 307.071 566.494C305.833 566.778 304.596 567.062 303.321 567.354C253.257 578.801 177.38 589.262 129.442 565.593C126.333 563.177 126.333 563.177 124.675 559.861C122.94 537.669 126.687 515.465 129.65 493.535C129.836 492.096 130.022 490.657 130.213 489.175C142.434 394.913 142.434 394.913 161.154 375.808C184.742 361.001 217.699 357.147 244.683 352.905C245.776 352.73 246.869 352.556 247.995 352.376C273.246 348.401 298.387 347.285 323.898 347.221Z" fill="#FCFCFC"/>
<path d="M613.515 567.84C615.41 567.839 617.306 567.838 619.258 567.837C650.721 567.839 681.96 568.856 713.314 571.468C713.482 581.972 713.598 592.477 713.678 602.983C713.712 606.557 713.757 610.13 713.815 613.704C713.895 618.841 713.933 623.976 713.962 629.114C713.996 630.712 714.03 632.31 714.066 633.956C714.069 645.003 714.069 645.003 710.346 650.331C705.498 653.487 700.679 654.739 695.075 656.033C694.831 653.57 694.831 653.57 694.582 651.058C693.255 638.914 691.841 628.388 685.126 617.896C680.359 615.512 677.135 615.604 671.861 616.237C663.997 623.202 660.839 633.825 659.775 644.051C659.589 648.953 659.574 653.823 659.632 658.727C659.603 661.209 659.603 661.209 659.574 663.74C659.613 673.623 660.849 680.367 665.228 689.195C665.228 690.837 665.228 692.479 665.228 694.17C631.533 703.463 597.535 710.85 563.345 718.046C550.236 720.81 537.154 723.684 524.079 726.607C522.213 727.024 520.347 727.441 518.425 727.871C514.298 728.794 510.172 729.72 506.047 730.649C506.801 728.773 506.801 728.773 507.571 726.859C518.229 700.086 524.266 669.236 512.9 641.576C508.216 632.143 503.945 626.155 494.44 621.212C489.22 620.101 486.281 620.229 481.576 622.812C469.554 631.789 464.501 646.826 461.277 661.007C460.77 667.472 460.724 673.904 460.759 680.387C460.767 682.163 460.775 683.939 460.784 685.769C461.067 704.83 464.424 719.4 474.542 735.623C458.311 740.563 441.773 743.48 425.109 746.505C421.982 747.079 418.854 747.653 415.727 748.228C409.013 749.462 402.298 750.693 395.583 751.921C384.824 753.892 374.07 755.89 363.317 757.892C315.964 766.704 268.588 775.388 221.167 783.825C215.562 784.824 209.963 785.846 204.367 786.89C203.089 787.125 201.812 787.36 200.495 787.602C197.111 788.225 193.728 788.857 190.345 789.491C184.345 790.345 178.811 790.721 172.761 790.342C168.823 787.129 168.823 787.129 166.828 784.798C163.968 781.466 160.813 778.547 157.63 775.522C149.297 767.231 142.231 758.104 135.097 748.791C131.556 744.025 131.556 744.025 127.991 740.598C134.038 737.915 139.435 736.621 145.998 735.869C147.849 735.656 149.7 735.442 151.607 735.222C153.526 735.012 155.446 734.803 157.423 734.587C160.264 734.254 160.264 734.254 163.162 733.913C173.62 732.735 183.794 732.061 194.317 732.307C194.317 731.213 194.317 730.118 194.317 728.991C193.393 728.854 192.47 728.717 191.519 728.576C184.048 726.153 178.478 720.689 174.419 714.068C174.419 712.426 174.419 710.784 174.419 709.093C178.91 709.332 183.401 709.575 187.891 709.819C189.12 709.884 190.35 709.949 191.616 710.016C197.457 710.335 203.289 710.671 209.12 711.151C225.517 712.484 241.835 712.738 258.278 712.805C259.719 712.811 261.161 712.818 262.645 712.825C270.287 712.859 277.929 712.883 285.571 712.899C291.782 712.913 297.992 712.948 304.203 713.001C338.493 713.287 371.596 712.985 405.399 706.592C413.867 705.05 422.402 703.913 430.94 702.823C435.721 702.082 439.125 701.279 442.94 698.231C445.549 692.196 445.361 686.228 445.421 679.765C446.474 647.606 455.187 620.087 477.858 596.34C482.073 592.639 486.39 589.393 491.124 586.391C492.365 585.572 493.607 584.754 494.887 583.91C500.309 580.923 505.856 578.981 511.747 577.167C512.912 576.808 514.078 576.448 515.279 576.078C546.93 566.693 580.824 567.819 613.515 567.84Z" fill="#5D295E"/>
<path d="M850.939 359.227C868.449 359.227 885.959 359.227 904 359.227C904 466.475 904 573.723 904 684.222C901.264 681.486 898.528 678.75 895.709 675.931C882.667 664.032 867.743 655.002 850.939 649.401C850.939 553.643 850.939 457.886 850.939 359.227Z" fill="#089CA3"/>
<path d="M829.701 100.052C841.507 108.568 850.521 121.31 854.256 135.378C858.737 180.565 833.218 220.766 805.775 254.667C804.811 255.793 803.847 256.919 802.854 258.08C802.078 259.053 801.302 260.025 800.502 261.027C797.879 263.054 797.879 263.054 793.844 263.767C783.965 262.113 777.89 250.873 772.256 243.186C760.253 226.342 749.919 208.987 741.503 190.096C740.628 188.213 739.754 186.33 738.853 184.39C731.439 166.566 729.152 144.444 735.906 125.947C737.772 122.216 737.772 122.216 739.844 118.796C740.528 117.634 741.212 116.471 741.917 115.273C749.63 103.703 762.28 94.032 775.559 89.6688C795.622 86.1339 812.669 88.8298 829.701 100.052Z" fill="#0B9DA4"/>
<path d="M784.614 463.689C799.935 463.689 815.256 463.689 831.042 463.689C831.042 522.238 831.042 580.787 831.042 641.11C815.513 637.457 800.004 633.701 784.614 629.503C784.614 574.785 784.614 520.066 784.614 463.689Z" fill="#099BA1"/>
<path d="M545.842 389.073C552.374 391.205 558.474 393.519 564.626 396.587C566.225 397.384 567.823 398.181 569.471 399.003C571.112 399.83 572.754 400.657 574.445 401.509C576.112 402.336 577.78 403.164 579.497 404.016C581.087 404.813 582.678 405.61 584.316 406.432C585.764 407.158 587.211 407.883 588.703 408.631C592.27 410.629 592.27 410.629 595.586 413.945C595.985 417.743 595.985 417.743 595.963 422.541C595.963 424.334 595.962 426.126 595.962 427.973C595.945 429.914 595.928 431.856 595.91 433.856C595.906 435.839 595.901 437.821 595.896 439.864C595.877 446.217 595.836 452.57 595.794 458.922C595.777 463.221 595.762 467.52 595.748 471.818C595.712 482.374 595.656 492.929 595.586 503.485C585.081 502.345 574.632 501.041 564.185 499.443C562.778 499.241 561.37 499.039 559.92 498.831C558.577 498.625 557.233 498.418 555.849 498.206C554.642 498.025 553.434 497.845 552.19 497.659C549.158 496.852 549.158 496.852 545.842 493.536C545.443 489.171 545.443 489.171 545.466 483.57C545.466 481.479 545.466 479.388 545.466 477.233C545.483 474.942 545.501 472.652 545.518 470.361C545.525 468.024 545.529 465.686 545.533 463.349C545.545 457.194 545.578 451.039 545.615 444.883C545.648 438.604 545.664 432.324 545.68 426.045C545.716 413.721 545.772 401.397 545.842 389.073Z" fill="#FBFAFB"/>
<path d="M121.359 609.605C129.066 610.524 134.843 613.874 141.257 617.999C142.807 618.993 142.807 618.993 144.39 620.008C152.331 625.336 157.124 630.72 161.154 639.451C164.001 644.956 164.001 644.956 169.762 645.637C172.174 645.923 174.591 646.172 177.01 646.395C178.347 646.527 179.684 646.659 181.062 646.795C195.406 648.009 209.778 648.047 224.163 648.053C225.339 648.054 226.514 648.056 227.725 648.058C238.886 648.056 250.05 647.93 261.193 647.275C262.595 647.195 263.997 647.115 265.441 647.033C269.994 645.795 271.065 643.981 273.389 639.969C273.999 638.77 274.608 637.571 275.235 636.336C283.507 621.706 304.566 616.366 319.623 611.561C325.42 609.996 330.916 609.059 336.917 609.605C339.935 612.623 338.933 617.148 338.99 621.212C338.917 630.599 338.238 639.402 333.601 647.742C310.447 663.178 266.411 656.395 239.811 656.431C235.266 656.438 230.723 656.461 226.178 656.499C139.199 657.205 139.199 657.205 123.419 643.564C120.237 637.211 120.835 631.105 121.048 624.113C121.07 622.72 121.093 621.326 121.116 619.89C121.174 616.461 121.264 613.033 121.359 609.605Z" fill="#F7F5F8"/>
<path d="M608.852 422.236C615.486 423.563 618.784 424.438 624.364 427.567C625.669 428.295 626.974 429.023 628.318 429.772C629.658 430.534 630.997 431.296 632.376 432.082C633.735 432.837 635.093 433.593 636.493 434.371C646.522 440.009 646.522 440.009 650.305 443.792C650.704 446.898 650.704 446.898 650.682 450.714C650.681 452.141 650.681 453.568 650.681 455.039C650.664 456.581 650.647 458.124 650.629 459.713C650.624 461.291 650.619 462.869 650.615 464.494C650.596 469.546 650.554 474.598 650.512 479.649C650.496 483.069 650.481 486.489 650.467 489.909C650.43 498.304 650.373 506.698 650.305 515.092C636.096 514.123 622.993 511.288 608.852 508.46C608.852 480.006 608.852 451.552 608.852 422.236Z" fill="#F9F7F9"/>
<path d="M729.896 544.938C742.481 544.938 755.066 544.938 768.033 544.938C768.033 571.203 768.033 597.468 768.033 624.529C739.844 622.871 739.844 622.871 729.896 621.213C729.896 596.042 729.896 570.872 729.896 544.938Z" fill="#099EA3"/>
<path d="M402.828 400.266C404.871 400.223 406.915 400.18 409.02 400.136C415.148 400.708 418.215 402.083 423.14 405.655C422.557 421.167 421.378 436.499 419.202 451.875C419.013 453.304 418.825 454.732 418.63 456.204C418.33 458.21 418.33 458.21 418.023 460.257C417.851 461.441 417.68 462.624 417.503 463.844C416.26 467.792 414.823 469.49 411.533 471.98C406.927 472.43 402.756 472.6 398.164 472.498C396.342 472.506 396.342 472.506 394.482 472.515C385.446 472.423 385.446 472.423 381.687 468.664C381.258 465.459 381.258 465.459 381.246 461.539C381.239 460.096 381.233 458.654 381.226 457.167C381.241 455.626 381.256 454.085 381.272 452.497C381.282 450.93 381.292 449.364 381.303 447.749C381.965 400.525 381.965 400.525 402.828 400.266Z" fill="#5E2B5F"/>
<path d="M661.912 450.424C694.414 468.153 694.414 468.153 698.391 478.612C700.368 489.281 700.205 500.331 700.256 511.153C700.264 512.332 700.272 513.512 700.28 514.727C700.253 523.178 700.253 523.178 698.391 525.04C686.784 525.04 686.784 525.04 661.912 518.408C661.912 495.973 661.912 473.538 661.912 450.424Z" fill="#F8F6F8"/>
<path d="M803.01 125.274C810.483 129.624 815.737 133.996 819.436 142.01C820.903 151.389 819.849 158.893 814.461 166.882C810.419 170.613 810.419 170.613 806.17 173.515C805.179 174.199 804.187 174.883 803.165 175.588C797.507 177.527 792.123 177.746 786.273 176.831C778.056 172.565 772.193 166.912 768.033 158.592C767.132 150.376 767.097 143.882 770.831 136.414C779.483 126.593 789.606 119.472 803.01 125.274Z" fill="#F6FAFB"/>
<path d="M491.952 643.287C498.269 645.024 501.257 648.901 504.388 654.376C511.768 672.291 508.876 695.113 503.171 712.955C500.874 717.804 498.602 720.65 494.44 724.018C489.465 724.432 489.465 724.432 484.491 722.36C473.376 707.744 473.385 688.404 474.542 670.957C475.953 661.822 477.902 654.885 483.454 647.432C487.807 644.427 487.807 644.427 491.952 643.287Z" fill="#5E2B5F"/>
<path d="M664.813 777.698C666.07 778.122 667.327 778.545 668.622 778.981C671.861 780.393 671.861 780.393 675.177 783.709C659.586 791.231 643.797 798.336 627.963 805.33C625.733 806.319 623.506 807.315 621.282 808.32C618.097 809.755 614.901 811.163 611.701 812.565C608.904 813.808 608.904 813.808 606.05 815.077C598.028 817.7 590.489 817.718 582.379 815.421C581.295 815.122 580.21 814.823 579.092 814.514C578.003 814.198 576.914 813.882 575.792 813.556C574.091 813.081 574.091 813.081 572.356 812.597C569.594 811.825 566.837 811.034 564.082 810.239C564.082 809.145 564.082 808.051 564.082 806.923C565.415 806.44 566.748 805.957 568.122 805.459C574.377 803.189 580.629 800.912 586.881 798.632C588.009 798.222 589.136 797.811 590.298 797.389C605.962 791.68 621.525 785.805 636.844 779.211C646.772 775.064 654.427 774.081 664.813 777.698Z" fill="#F4F1F5"/>
<path d="M751.451 634.478C751.998 635.572 752.545 636.667 753.109 637.794C757.198 639.659 761.28 641.392 765.442 643.079C782.578 650.315 795.916 658.678 806.688 674.066C809.972 684.218 807.934 692.768 803.417 702.06C798.261 710.688 791.441 718.548 782.956 724.017C776.552 724.475 770.851 724.322 764.716 722.359C767.052 716.873 769.753 713.878 774.354 710.13C784.375 701.619 791.671 693.9 793.734 680.491C792.366 670.235 787.432 662.866 779.303 656.481C766.073 648.18 751.326 642.61 736.528 637.794C741.726 634.714 745.44 634.144 751.451 634.478Z" fill="#F3EFF4"/>
<path d="M646.989 664.325C644.563 669.176 641.347 669.398 636.314 671.164C634.675 671.75 633.036 672.336 631.347 672.939C627.091 674.273 627.091 674.273 623.775 674.273C624.596 680.019 624.596 680.019 625.433 685.88C623.798 685.913 622.164 685.946 620.48 685.98C576.429 686.833 576.429 686.833 532.577 690.855C532.577 688.119 532.577 685.383 532.577 682.564C540.361 680.2 547.874 678.511 555.947 677.344C557.59 677.101 557.59 677.101 559.267 676.854C561.602 676.51 563.936 676.17 566.272 675.832C572.395 674.947 578.514 674.039 584.634 673.127C585.851 672.946 587.069 672.764 588.323 672.578C600.719 670.715 613.059 668.562 625.381 666.262C632.695 664.929 639.513 663.994 646.989 664.325Z" fill="#F0EBF0"/>
<path d="M753.116 734.723C755.898 735.504 758.652 736.385 761.4 737.282C756.393 742.608 750.555 745.821 744.197 749.303C743.019 749.95 741.841 750.598 740.628 751.265C738.213 752.591 735.798 753.916 733.381 755.238C730.157 757.034 726.984 758.895 723.82 760.793C708.581 769.679 708.581 769.679 701.189 768.89C698.162 768.018 698.162 768.018 695.074 767.128C692.588 766.536 690.101 765.948 687.613 765.366C685.697 764.853 683.782 764.34 681.809 763.812C684.346 758.739 688.388 757.946 693.494 755.631C694.502 755.169 695.511 754.707 696.55 754.231C699.784 752.751 703.025 751.286 706.267 749.821C709.484 748.361 712.699 746.898 715.912 745.429C718.845 744.09 721.781 742.76 724.718 741.431C729.872 739.063 729.872 739.063 734.372 736.167C740.495 732.632 746.337 733.177 753.116 734.723Z" fill="#F4F1F5"/>
<path d="M675.176 631.161C679.365 631.58 681.395 632.431 684.478 635.326C687.819 641.304 687.523 647.086 687.405 653.753C687.391 655.084 687.376 656.414 687.361 657.785C686.866 677.899 686.866 677.899 681.809 685.88C678.311 687.117 678.311 687.117 675.176 687.538C668.946 677.515 668.199 670.343 668.129 658.831C668.095 657.435 668.061 656.038 668.026 654.599C667.972 646.046 668.831 640.265 673.518 632.819C674.065 632.272 674.613 631.725 675.176 631.161Z" fill="#5F2C5F"/>
<path d="M398.268 390.732C398.815 392.92 399.362 395.109 399.926 397.364C403.756 397.911 407.587 398.459 411.533 399.022C411.533 399.57 411.533 400.117 411.533 400.681C410.154 400.704 408.776 400.728 407.355 400.752C405.553 400.831 403.751 400.91 401.895 400.991C400.106 401.049 398.317 401.107 396.474 401.166C391.408 401.887 391.408 401.887 388.623 405.933C381.173 423.76 382.459 446.273 381.686 465.348C380.592 464.801 379.498 464.254 378.37 463.69C378.37 462.048 378.37 460.407 378.37 458.715C377.276 458.715 376.181 458.715 375.054 458.715C375.054 463.093 375.054 467.47 375.054 471.981C371.738 468.664 371.738 468.664 371.348 464.793C371.524 451.746 372.3 438.846 373.603 425.864C373.757 423.915 373.911 421.967 374.069 419.96C375.159 409.234 376.534 402.093 384.27 394.322C388.97 390.524 392.366 390.576 398.268 390.732Z" fill="#EDE7ED"/>
<path d="M666.887 312.799C679.576 313.222 692.355 316.259 703.366 322.748C705.128 326.867 705.128 326.867 705.024 331.038C703.055 334.109 703.055 334.109 700.05 336.013C696.941 335.948 696.941 335.948 693.417 334.976C692.117 334.632 690.818 334.288 689.479 333.934C688.043 333.525 686.606 333.117 685.126 332.696C683.485 332.271 681.843 331.846 680.152 331.408C667.176 328.012 667.176 328.012 665.229 326.064C665.021 320.26 665.021 320.26 665.229 314.457C665.776 313.91 666.323 313.363 666.887 312.799Z" fill="#6C3969"/>
<path d="M612.103 302.772C613.424 302.934 614.745 303.097 616.106 303.264C617.57 303.444 619.034 303.623 620.543 303.808C644.782 307.276 644.782 307.276 646.989 309.482C647.3 313.524 647.3 313.524 646.989 317.773C643.673 321.089 643.673 321.089 640.363 321.53C612.43 321.351 612.43 321.351 605.536 314.457C605.121 310.311 605.121 310.311 605.536 306.166C608.852 302.85 608.852 302.85 612.103 302.772Z" fill="#6D396B"/>
<path d="M749.793 438.817C757.344 438.205 757.344 438.205 761.089 441.304C761.739 442.125 762.389 442.946 763.058 443.791C760.839 451.204 757.882 457.454 753.939 464.103C752.93 465.822 751.921 467.54 750.881 469.311C748.135 473.638 748.135 473.638 744.819 476.954C740.674 477.369 740.674 477.369 736.528 476.954C735.434 475.86 734.339 474.765 733.212 473.638C733.723 466.47 736.89 461.346 740.57 455.295C743.843 449.875 747.065 444.533 749.793 438.817Z" fill="#673466"/>
<path d="M760.675 380.886C764.716 382.441 764.716 382.441 766.608 385.673C768.613 392.792 768.448 399.541 768.343 406.898C768.342 408.35 768.341 409.801 768.34 411.296C768.266 422.003 768.266 422.003 766.374 423.894C762.333 424.205 762.333 424.205 758.084 423.894C753.468 419.279 754.159 416.04 753.835 409.593C753.341 401.018 752.642 392.602 751.451 384.099C756.426 380.783 756.426 380.783 760.675 380.886Z" fill="#6D3B6B"/>
<path d="M723.263 334.354C730.28 336.685 734.739 340.038 740.155 345.029C741.581 346.326 743.007 347.624 744.476 348.96C748.634 353.089 751.248 355.9 751.97 361.817C751.799 363.151 751.628 364.485 751.451 365.859C746.477 369.175 746.477 369.175 743.2 368.949C738.921 367.123 737.123 364.833 734.248 361.196C730.61 356.779 727.508 353.468 722.538 350.625C718.289 347.62 718.289 347.62 717.356 343.371C718.403 338.835 719.66 337.207 723.263 334.354Z" fill="#683365"/>
<path d="M563.933 278.25C568.215 279.962 571.195 282.307 574.756 285.232C579.861 289.334 584.852 293.058 590.612 296.217C589.369 304.093 589.369 304.093 585.638 307.824C578.717 307.332 574.383 304.581 568.849 300.57C567.443 299.565 566.036 298.561 564.587 297.526C555.975 290.84 555.975 290.84 555.169 285.336C555.375 284.002 555.58 282.668 555.791 281.294C560.766 277.978 560.766 277.978 563.933 278.25Z" fill="#683565"/>
<path d="M637.454 184.915C639.275 184.906 639.275 184.906 641.133 184.896C650.095 184.912 650.095 184.912 651.963 186.781C652.274 190.822 652.274 190.822 651.963 195.071C644.296 202.738 627.35 200.233 616.974 200.266C613.826 200.046 613.826 200.046 612.168 198.387C611.857 194.346 611.857 194.346 612.168 190.097C618.858 183.407 628.504 184.867 637.454 184.915Z" fill="#633263"/>
<path d="M850.939 359.227C851.487 359.227 852.034 359.227 852.598 359.227C852.598 454.437 852.598 549.647 852.598 647.743C854.239 647.195 855.881 646.648 857.572 646.085C859.214 647.726 860.855 649.368 862.546 651.059C861.452 651.606 860.358 652.153 859.23 652.717C856.494 651.623 853.758 650.528 850.939 649.401C850.939 553.643 850.939 457.886 850.939 359.227Z" fill="#1699A2"/>
<path d="M671.861 188.438C683.568 188.438 694.183 192.751 703.365 200.045C704.926 204.32 704.926 204.32 705.023 208.336C703.929 209.43 702.835 210.524 701.707 211.652C694.629 210.995 688.12 209.02 681.395 206.781C679.676 206.219 677.958 205.657 676.187 205.078C671.861 203.361 671.861 203.361 668.544 200.045C668.13 195.9 668.13 195.9 668.544 191.754C669.639 190.66 670.733 189.566 671.861 188.438Z" fill="#6D3B6B"/>
<path d="M719.946 213.311C727.989 214.157 732.423 219.898 737.875 225.332C738.887 226.283 739.899 227.234 740.942 228.214C743.635 230.881 746.03 233.372 748.135 236.524C748.056 240.948 747.985 243.307 744.818 246.473C741.049 247.076 741.049 247.076 736.528 246.473C732.628 243.021 732.628 243.021 728.859 238.494C727.606 237.012 726.354 235.531 725.063 234.005C723.922 232.648 722.78 231.29 721.604 229.892C720.645 228.981 719.685 228.071 718.696 227.133C716.63 224.918 716.63 224.918 716.112 220.669C716.63 216.627 716.63 216.627 719.946 213.311Z" fill="#693768"/>
<path d="M592.063 195.382C595.586 196.729 595.586 196.729 597.244 198.387C598.041 202.131 598.041 202.131 597.244 206.678C593.542 209.875 590.281 212.255 586.156 214.761C585.118 215.45 584.08 216.138 583.011 216.847C578.086 219.941 575.011 221.681 569.127 221.2C568.009 220.785 566.891 220.37 565.74 219.943C565.192 217.207 564.645 214.471 564.082 211.652C582.602 194.765 582.602 194.765 592.063 195.382Z" fill="#663365"/>
<path d="M549.159 229.892C553.097 229.685 553.097 229.685 557.449 229.892C560.766 233.208 560.766 233.208 560.89 236.272C560.755 237.484 560.62 238.696 560.481 239.944C560.263 241.926 560.263 241.926 560.04 243.947C559.784 246.018 559.784 246.018 559.522 248.131C559.304 250.202 559.304 250.202 559.082 252.316C557.881 262.623 557.881 262.623 554.133 266.371C549.884 266.682 549.884 266.682 545.842 266.371C542.691 263.22 543.823 257.925 543.77 253.728C543.808 244.381 544.537 237.98 549.159 229.892Z" fill="#6C3B6B"/>
<path d="M385.003 597.999C385.55 597.999 386.097 597.999 386.661 597.999C386.661 629.189 386.661 660.378 386.661 692.513C388.303 693.06 389.944 693.607 391.636 694.171C387.532 694.992 387.532 694.992 383.345 695.829C383.303 686.161 383.274 676.492 383.254 666.824C383.246 663.547 383.234 660.27 383.22 656.993C383.135 637.251 383.429 617.686 385.003 597.999Z" fill="#623563"/>
<path d="M642.015 551.57C642.015 552.118 642.015 552.665 642.015 553.229C648.581 553.776 655.147 554.323 661.912 554.887C661.912 555.434 661.912 555.981 661.912 556.545C638.102 556.694 614.313 556.223 590.509 555.716C586.643 555.636 582.777 555.556 578.911 555.476C569.546 555.283 560.182 555.086 550.817 554.887C550.817 554.34 550.817 553.792 550.817 553.229C560.873 552.99 570.93 552.754 580.986 552.52C584.4 552.44 587.814 552.36 591.228 552.279C596.163 552.162 601.099 552.047 606.034 551.933C607.536 551.897 609.038 551.861 610.585 551.823C621.063 551.585 631.534 551.531 642.015 551.57Z" fill="#8D6C8F"/>
<path d="M373.396 433.843C373.943 433.843 374.49 433.843 375.054 433.843C375.601 436.579 376.148 439.315 376.712 442.133C377.259 442.133 377.806 442.133 378.37 442.133C378.917 445.417 379.465 448.7 380.028 452.082C380.575 452.082 381.123 452.082 381.686 452.082C381.686 456.46 381.686 460.837 381.686 465.347C380.592 464.8 379.498 464.253 378.37 463.689C378.37 462.048 378.37 460.406 378.37 458.715C377.276 458.715 376.181 458.715 375.054 458.715C375.054 463.092 375.054 467.47 375.054 471.98C371.738 468.664 371.738 468.664 371.355 464.512C371.501 454.169 372.028 444.099 373.396 433.843Z" fill="#E1D7E1"/>
<path d="M751.451 634.478C751.998 635.572 752.545 636.667 753.109 637.794C756.995 639.648 760.841 641.35 764.82 642.976C766.469 643.665 766.469 643.665 768.152 644.368C770.872 645.503 773.597 646.624 776.323 647.743C775.776 649.385 775.229 651.026 774.665 652.717C772.746 651.918 770.826 651.119 768.849 650.295C766.297 649.237 763.745 648.179 761.193 647.121C759.932 646.595 758.67 646.07 757.371 645.528C750.493 642.682 743.632 640.041 736.528 637.794C741.726 634.714 745.44 634.144 751.451 634.478Z" fill="#E5DAE6"/>
<path d="M690.1 626.187C696.301 635.489 695.264 645.21 695.075 656.033C693.433 655.486 691.791 654.939 690.1 654.375C689.553 658.752 689.006 663.13 688.442 667.64C687.895 667.64 687.348 667.64 686.784 667.64C686.694 663.875 686.63 660.11 686.577 656.344C686.538 654.247 686.5 652.15 686.46 649.99C686.784 644.426 686.784 644.426 690.1 639.452C690.499 636.041 690.499 636.041 690.307 632.508C690.239 630.422 690.171 628.336 690.1 626.187Z" fill="#CEBECE"/>
<path d="M776.323 649.401C784.068 651.983 789.733 656.174 796.221 661.008C794.032 663.197 791.843 665.386 789.588 667.641C787.742 665.384 787.742 665.384 785.857 663.081C782.331 658.841 778.641 654.888 774.665 651.06C775.212 650.512 775.759 649.965 776.323 649.401Z" fill="#EEE8EE"/>
<path d="M618.8 665.982C618.8 667.076 618.8 668.171 618.8 669.298C614.001 670.18 609.2 671.041 604.395 671.889C603.041 672.14 601.687 672.391 600.292 672.65C593.296 673.868 587.613 674.752 580.663 672.614C580.663 672.067 580.663 671.52 580.663 670.956C584.841 670.114 589.02 669.287 593.203 668.469C594.371 668.232 595.539 667.995 596.742 667.75C604.24 666.299 611.164 665.741 618.8 665.982Z" fill="#6A3B6B"/>
<path d="M191 649.401C199.755 649.401 208.51 649.401 217.53 649.401C215.889 650.222 215.889 650.222 214.214 651.06C214.214 652.154 214.214 653.248 214.214 654.376C206.553 654.376 198.893 654.376 191 654.376C191 652.734 191 651.093 191 649.401Z" fill="#FCFBFC"/>
<path d="M708.34 465.348C715.251 475.714 713.526 489.755 713.418 501.827C713.41 503.428 713.403 505.029 713.395 506.678C713.376 510.588 713.349 514.498 713.314 518.408C712.767 518.408 712.22 518.408 711.656 518.408C711.656 508.012 711.656 497.615 711.656 486.903C710.562 486.903 709.467 486.903 708.34 486.903C708.34 479.79 708.34 472.677 708.34 465.348Z" fill="#7F587F"/>
<path d="M385.003 407.312C384.455 416.067 383.908 424.822 383.344 433.843C382.797 433.843 382.25 433.843 381.686 433.843C378.416 425.667 377.646 419.312 378.37 410.629C383.344 407.312 383.344 407.312 385.003 407.312ZM375.054 422.236C376.148 423.33 377.242 424.424 378.37 425.552C377.276 425.552 376.181 425.552 375.054 425.552C375.054 424.458 375.054 423.363 375.054 422.236Z" fill="#F1EDF1"/>
<path d="M511.021 855.011C508.833 855.558 506.644 856.106 504.389 856.669C504.389 857.764 504.389 858.858 504.389 859.986C493.981 866.72 493.981 866.72 487.911 866.204C486.783 865.793 485.654 865.383 484.491 864.96C489.29 861.076 493.895 858.545 499.622 856.255C501.062 855.665 502.503 855.075 503.987 854.467C507.705 853.353 507.705 853.353 511.021 855.011Z" fill="#734875"/>
<path d="M749.793 636.136C768.898 637.733 768.898 637.733 777.982 639.452C775.287 642.043 775.287 642.043 771.349 644.426C763.394 644.073 756.924 641.074 749.793 637.794C749.793 637.247 749.793 636.7 749.793 636.136Z" fill="#623B66"/>
<path d="M731.553 636.136C740.032 637.907 748.254 639.835 756.425 642.768C753.524 645.359 753.524 645.359 749.793 647.743C744.581 647.048 741.135 645.021 736.942 641.939C735.925 641.204 734.907 640.469 733.859 639.711C733.098 639.078 732.337 638.446 731.553 637.794C731.553 637.247 731.553 636.7 731.553 636.136Z" fill="#68396B"/>
<path d="M184.368 647.742C188.198 647.742 192.029 647.742 195.975 647.742C194.334 648.289 192.692 648.837 191.001 649.4C191.001 651.042 191.001 652.683 191.001 654.375C192.095 654.922 193.189 655.469 194.317 656.033C186.303 656.171 179.001 655.954 171.103 654.375C171.103 653.828 171.103 653.28 171.103 652.717C175.481 652.717 179.858 652.717 184.368 652.717C184.368 651.075 184.368 649.433 184.368 647.742Z" fill="#DBCEDC"/>
<path d="M441.379 881.541C442.473 882.088 443.568 882.635 444.695 883.199C442.507 883.746 440.318 884.294 438.063 884.857C438.063 885.952 438.063 887.046 438.063 888.174C436.968 888.174 435.874 888.174 434.746 888.174C434.746 889.268 434.746 890.362 434.746 891.49C432.612 892.135 430.468 892.752 428.321 893.355C426.532 893.875 426.532 893.875 424.707 894.405C423.642 894.537 422.578 894.67 421.481 894.806C420.387 893.712 419.293 892.617 418.165 891.49C423.132 889.261 428.108 887.055 433.088 884.857C434.696 884.139 436.303 883.421 437.959 882.681C439.088 882.305 440.216 881.929 441.379 881.541Z" fill="#734875"/>
<path d="M176.077 831.796C181.002 832.343 185.926 832.89 191 833.454C191 836.19 191 838.926 191 841.745C185.888 839.757 180.947 837.638 176.077 835.112C176.077 834.018 176.077 832.923 176.077 831.796Z" fill="#643767"/>
<path d="M132.966 133.72C134.607 134.267 136.249 134.815 137.94 135.378C133.015 140.303 128.091 145.228 123.017 150.302C121.375 149.754 119.734 149.207 118.042 148.643C122.967 143.719 127.892 138.794 132.966 133.72Z" fill="#73426E"/>
<path d="M753.731 438.403C758.084 438.817 758.084 438.817 761.193 440.89C763.058 443.792 763.058 443.792 762.54 447.419C761.976 448.907 761.976 448.907 761.4 450.424C760.306 450.424 759.211 450.424 758.084 450.424C758.631 448.236 759.178 446.047 759.742 443.792C757.553 443.792 755.364 443.792 753.109 443.792C752.015 444.886 750.92 445.981 749.793 447.108C748.86 443.895 748.86 443.895 748.135 440.476C749.793 438.817 749.793 438.817 753.731 438.403Z" fill="#6F426D"/>
<path d="M700.049 757.179C697.86 757.727 695.671 758.274 693.416 758.838C693.963 761.026 694.51 763.215 695.074 765.47C690.697 764.923 686.319 764.376 681.809 763.812C685.225 756.981 693.22 754.903 700.049 757.179Z" fill="#E5DBE5"/>
<path d="M376.713 491.878C377.807 491.878 378.902 491.878 380.029 491.878C379.482 500.633 378.935 509.388 378.371 518.408C377.824 518.408 377.277 518.408 376.713 518.408C375.535 509.239 374.553 500.998 376.713 491.878Z" fill="#704670"/>
<path d="M154.521 112.164C155.616 112.711 156.71 113.258 157.838 113.822C156.025 116.048 154.19 118.255 152.345 120.455C150.816 122.302 150.816 122.302 149.256 124.186C146.231 127.087 146.231 127.087 141.256 127.087C142.844 125.22 144.433 123.355 146.023 121.491C146.908 120.452 147.793 119.413 148.705 118.343C150.566 116.213 152.521 114.164 154.521 112.164Z" fill="#73416D"/>
<path d="M751.451 634.478C752.545 637.214 753.64 639.95 754.767 642.769C748.748 641.127 742.729 639.486 736.528 637.794C742.774 634.671 744.868 634.112 751.451 634.478Z" fill="#D1C2D1"/>
<path d="M375.054 458.715C376.148 458.715 377.242 458.715 378.37 458.715C380.235 463.378 380.235 463.378 381.686 468.664C380.045 471.126 380.045 471.126 378.37 473.638C376.728 473.091 375.087 472.544 373.396 471.98C373.943 467.602 374.49 463.225 375.054 458.715Z" fill="#F4F0F4"/>
<path d="M167.787 337.671C168.881 337.671 169.975 337.671 171.103 337.671C168.365 344.788 163.247 349.078 157.838 354.252C156.743 353.705 155.649 353.158 154.521 352.594C156.652 350.097 158.796 347.612 160.947 345.133C162.736 343.055 162.736 343.055 164.561 340.935C165.625 339.858 166.69 338.781 167.787 337.671Z" fill="#693B6B"/>
<path d="M515.996 700.803C517.09 700.803 518.185 700.803 519.312 700.803C518.536 708.722 517.251 714.142 512.68 720.7C510.343 716.028 511.836 713.781 513.405 708.886C513.882 707.377 514.358 705.868 514.85 704.313C515.228 703.155 515.606 701.996 515.996 700.803Z" fill="#6C416C"/>
<path d="M320.335 563.178C319.788 564.819 319.241 566.461 318.677 568.152C312.015 569.547 307.04 569.9 300.438 568.152C306.988 564.513 312.853 563.178 320.335 563.178Z" fill="#693A6B"/>
<path d="M817.777 156.934C819.02 159.628 819.02 159.628 819.435 163.566C816.958 167.778 814.617 171.7 811.144 175.173C808.381 175.241 805.616 175.244 802.854 175.173C804.119 174.216 805.384 173.258 806.688 172.271C812.327 167.55 815.451 163.912 817.777 156.934Z" fill="#2BA9B1"/>
<path d="M646.989 664.324C646.442 665.418 645.895 666.512 645.331 667.64C641.494 668.852 637.623 669.964 633.724 670.956C633.724 669.862 633.724 668.768 633.724 667.64C630.988 667.64 628.252 667.64 625.433 667.64C625.433 667.093 625.433 666.546 625.433 665.982C632.705 664.818 639.623 664.144 646.989 664.324Z" fill="#D0BED0"/>
<path d="M121.358 609.605C123 609.605 124.642 609.605 126.333 609.605C125.786 611.247 125.238 612.889 124.675 614.58C124.298 618.835 123.985 623.064 123.742 627.327C123.67 628.491 123.599 629.655 123.525 630.854C123.35 633.719 123.182 636.586 123.017 639.452C122.469 639.452 121.922 639.452 121.358 639.452C121.358 629.603 121.358 619.753 121.358 609.605Z" fill="#E4D8E3"/>
<path d="M215.873 825.163C207.78 829.21 203.393 830.914 194.317 828.48C194.317 827.932 194.317 827.385 194.317 826.821C196.662 826.215 199.012 825.633 201.364 825.06C202.673 824.733 203.981 824.406 205.328 824.069C209.413 823.48 211.987 823.889 215.873 825.163Z" fill="#866288"/>
<path d="M434.747 364.201C434.2 365.843 433.653 367.484 433.089 369.176C428.84 371.145 428.84 371.145 424.798 372.492C424.798 373.586 424.798 374.681 424.798 375.808C423.157 375.261 421.515 374.714 419.824 374.15C421.68 372.482 423.548 370.826 425.42 369.176C426.978 367.791 426.978 367.791 428.568 366.377C431.431 364.201 431.431 364.201 434.747 364.201Z" fill="#6B3D6C"/>
<path d="M481.175 866.617C481.175 867.712 481.175 868.806 481.175 869.933C477.237 872.732 477.237 872.732 472.884 874.908C469.568 873.25 469.568 873.25 467.91 869.933C472.728 867.85 475.862 866.617 481.175 866.617Z" fill="#704372"/>
<path d="M850.939 636.136C851.487 636.136 852.034 636.136 852.598 636.136C852.598 639.966 852.598 643.796 852.598 647.743C854.239 647.196 855.881 646.648 857.572 646.085C859.214 647.726 860.855 649.368 862.546 651.059C860.905 651.88 860.905 651.88 859.23 652.717C854.878 651.163 854.878 651.163 850.939 649.401C850.939 645.023 850.939 640.646 850.939 636.136Z" fill="#289EA6"/>
<path d="M585.638 296.217C586.732 298.406 587.827 300.595 588.954 302.85C587.313 305.312 587.313 305.312 585.638 307.824C582.902 307.277 580.166 306.73 577.347 306.166C577.347 305.072 577.347 303.977 577.347 302.85C579.536 302.85 581.725 302.85 583.98 302.85C584.527 300.661 585.074 298.472 585.638 296.217Z" fill="#6E3D6D"/>
<path d="M623.774 667.64C627.058 667.64 630.341 667.64 633.723 667.64C633.176 669.281 632.629 670.923 632.065 672.614C629.329 672.614 626.593 672.614 623.774 672.614C623.774 670.973 623.774 669.331 623.774 667.64Z" fill="#FBFAFB"/>
<path d="M81.5633 403.996C82.6577 404.543 83.7521 405.09 84.8796 405.654C83.887 409.554 82.775 413.424 81.5633 417.261C79.9218 418.082 79.9218 418.082 78.2471 418.919C79.6979 407.727 79.6979 407.727 81.5633 403.996Z" fill="#6B3D6D"/>
<path d="M20.2123 327.722C23.5286 331.038 23.5286 331.038 23.5286 336.013C21.887 336.834 21.887 336.834 20.2123 337.671C19.1179 339.313 18.0235 340.954 16.896 342.645C18.3469 331.453 18.3469 331.453 20.2123 327.722Z" fill="#865982"/>
<path d="M668.545 780.395C670.733 781.489 672.922 782.583 675.177 783.711C669.432 786.173 669.432 786.173 663.57 788.685C663.57 787.044 663.57 785.402 663.57 783.711C665.212 782.616 666.853 781.522 668.545 780.395Z" fill="#E0D5E2"/>
<path d="M723.263 334.354C724.357 334.354 725.451 334.354 726.579 334.354C726.061 337.464 726.061 337.464 724.921 340.987C723.279 342.081 721.638 343.176 719.946 344.303C719.946 337.671 719.946 337.671 723.263 334.354Z" fill="#754272"/>
</svg>
